HIERARCHY
ROOT SpineBase
{
  OFFSET 0.000000 0.000000 0.000000
  CHANNELS 6 Xposition Yposition Zposition Zrotation Xrotation Yrotation
  JOINT SpineMid
  {
    OFFSET -0.000000 27.498826 0.000000
    CHANNELS 3 Zrotation Xrotation Yrotation
    JOINT SpineShoulder
    {
      OFFSET -0.535855 20.425332 -0.593508
      CHANNELS 3 Zrotation Xrotation Yrotation
      JOINT Neck
      {
        OFFSET -0.197076 6.750546 -0.392378
        CHANNELS 3 Zrotation Xrotation Yrotation
        JOINT Head
        {
          OFFSET -1.958169 11.622871 4.490928
          CHANNELS 3 Zrotation Xrotation Yrotation
          End Site
          {
            OFFSET 0 0 0
          }
        }
      }
      JOINT ShoulderLeft
      {
        OFFSET -8.428166 -0.198601 0.916211
        CHANNELS 3 Zrotation Xrotation Yrotation
        JOINT ElbowLeft
        {
          OFFSET -3.121566 -24.570356 5.921117
          CHANNELS 3 Zrotation Xrotation Yrotation
          JOINT WristLeft
          {
            OFFSET 18.590425 -3.929341 -17.774181
            CHANNELS 3 Zrotation Xrotation Yrotation
            JOINT HandLeft
            {
              OFFSET 13.864490 -8.726552 -15.143839
              CHANNELS 3 Zrotation Xrotation Yrotation
              JOINT HandTipLeft
              {
                OFFSET 1.556621 -2.695844 -2.946796
                CHANNELS 3 Zrotation Xrotation Yrotation
                End Site
                {
                  OFFSET 0 0 0
                }
              }
              JOINT ThumbLeft
              {
                OFFSET 0.720345 -1.349071 -2.800348
                CHANNELS 3 Zrotation Xrotation Yrotation
                End Site
                {
                  OFFSET 0 0 0
                }
              }
            }
          }
        }
      }
      JOINT ShoulderRight
      {
        OFFSET 7.896732 -5.754362 -10.128969
        CHANNELS 3 Zrotation Xrotation Yrotation
        JOINT ElbowRight
        {
          OFFSET 3.131888 -25.177682 -7.576837
          CHANNELS 3 Zrotation Xrotation Yrotation
          JOINT WristRight
          {
            OFFSET 0.067108 -18.161488 -6.293498
            CHANNELS 3 Zrotation Xrotation Yrotation
            JOINT HandRight
            {
              OFFSET -2.323058 -6.308460 0.312961
              CHANNELS 3 Zrotation Xrotation Yrotation
              JOINT HandTipRight
              {
                OFFSET -0.799818 -4.659867 0.212831
                CHANNELS 3 Zrotation Xrotation Yrotation
                End Site
                {
                  OFFSET 0 0 0
                }
              }
              JOINT ThumbRight
              {
                OFFSET -2.681805 -0.322504 -2.188351
                CHANNELS 3 Zrotation Xrotation Yrotation
                End Site
                {
                  OFFSET 0 0 0
                }
              }
            }
          }
        }
      }
    }
  }
  JOINT HipLeft
  {
    OFFSET -4.700377 0.369683 0.822593
    CHANNELS 3 Zrotation Xrotation Yrotation
    JOINT KneeLeft
    {
      OFFSET 5.595111 -26.877537 -4.730923
      CHANNELS 3 Zrotation Xrotation Yrotation
      JOINT AnkleLeft
      {
        OFFSET 3.759230 -29.591087 4.171038
        CHANNELS 3 Zrotation Xrotation Yrotation
        JOINT FootLeft
        {
          OFFSET -3.182537 -0.017203 -9.194504
          CHANNELS 3 Zrotation Xrotation Yrotation
          End Site
          {
            OFFSET 0 0 0
          }
        }
      }
    }
  }
  JOINT HipRight
  {
    OFFSET 4.735613 0.382527 -6.646562
    CHANNELS 3 Zrotation Xrotation Yrotation
    JOINT KneeRight
    {
      OFFSET 7.304273 -23.532575 2.288469
      CHANNELS 3 Zrotation Xrotation Yrotation
      JOINT AnkleRight
      {
        OFFSET -3.753932 -29.428552 4.136252
        CHANNELS 3 Zrotation Xrotation Yrotation
        JOINT FootRight
        {
          OFFSET -4.951721 -5.732955 -2.848752
          CHANNELS 3 Zrotation Xrotation Yrotation
          End Site
          {
            OFFSET 0 0 0
          }
        }
      }
    }
  }
}
MOTION
Frames: 14
Frame Time: 0.033333
35.773925 81.917366 406.602709 4.764252 -9.131199 21.535681 -1.507981 1.180400 -21.157338 0.217760 -0.782713 0.053373 0.434416 0.091110 -2.961091 0.000000 0.000000 0.000000 5.253472 19.577894 -1.113934 -66.710769 -23.391492 -77.303079 21.856494 16.844809 8.468551 6.656824 17.995362 30.967272 0.000000 0.000000 0.000000 0.000000 0.000000 0.000000 5.515250 -1.500947 -4.292364 3.097971 18.276853 -2.502875 17.629993 -1.389228 5.893339 -29.438117 3.295848 -2.267550 0.000000 0.000000 0.000000 0.000000 0.000000 0.000000 -19.679704 3.008661 -18.988420 8.022297 22.668545 0.825821 18.451883 -35.551762 6.860038 0.000000 0.000000 0.000000 1.391987 -11.845463 -25.970319 6.474266 15.987892 4.396185 4.648084 12.786960 -27.208556 0.000000 0.000000 0.000000
37.388626 81.616076 407.993653 5.236273 -7.855052 20.343076 -1.462566 1.388352 -19.962947 0.322966 -0.723384 0.077421 -3.082776 -3.803271 -2.019984 0.000000 0.000000 0.000000 4.308890 18.297876 -1.024416 -65.477046 -23.506239 -77.816509 21.516360 16.237068 9.503165 6.556682 18.287054 31.127529 0.000000 0.000000 0.000000 0.000000 0.000000 0.000000 5.083753 -3.507101 -4.209586 5.379456 19.941065 -4.024311 12.179023 0.410857 4.401614 -28.172343 0.092341 -1.845604 0.000000 0.000000 0.000000 0.000000 0.000000 0.000000 -19.767562 2.245850 -18.059559 4.694209 23.796015 1.696967 19.212192 -34.537748 4.292572 0.000000 0.000000 0.000000 1.292589 -12.374295 -24.436448 4.540471 16.001865 4.426371 7.342861 7.514508 -23.183386 0.000000 0.000000 0.000000
38.866493 81.296824 409.375271 5.776798 -6.470064 19.034109 -1.310061 1.399350 -18.669422 0.381785 -0.669039 0.111322 -6.136513 -6.759236 -1.444954 0.000000 0.000000 0.000000 -0.058766 14.239175 -0.597797 -59.284177 -22.618152 -75.485201 21.102218 15.108091 8.778276 -0.187042 16.465103 46.416905 0.000000 0.000000 0.000000 0.000000 0.000000 0.000000 4.231141 -4.318980 -3.995039 6.838213 20.305538 -4.938020 7.546741 0.393598 3.725571 -28.651679 -0.933464 -1.877945 0.000000 0.000000 0.000000 0.000000 0.000000 0.000000 -20.796274 1.537485 -16.804251 1.272634 26.595950 2.954228 19.133402 -30.156866 2.426303 0.000000 0.000000 0.000000 3.816896 -12.492048 -22.054309 2.131487 11.847540 4.849348 5.509986 6.591617 -18.924029 0.000000 0.000000 0.000000
40.677325 80.242701 409.557217 7.462778 -4.137301 14.865144 -1.473128 1.219552 -14.490976 0.564061 -1.008500 0.197982 -12.468368 -8.888106 -0.082234 0.000000 0.000000 0.000000 -1.045901 13.502956 -0.745479 -59.220937 -22.959283 -76.910826 20.809951 14.669463 9.642774 2.594890 22.473191 38.314612 0.000000 0.000000 0.000000 0.000000 0.000000 0.000000 2.384183 -5.064247 -3.797560 7.219871 20.328132 -5.199605 7.321261 2.503271 2.077477 -31.746549 -3.259379 -2.426831 0.000000 0.000000 0.000000 0.000000 0.000000 0.000000 -25.296506 -2.708275 -13.506672 1.656992 29.032725 3.483046 16.710392 -22.609905 -2.088959 0.000000 0.000000 0.000000 3.145556 -15.543462 -17.668323 -0.560677 13.483560 5.227352 1.700309 9.326241 -17.247224 0.000000 0.000000 0.000000
42.768302 78.236827 411.162898 9.426387 -3.438894 14.669610 -0.867892 1.440234 -14.256927 0.625107 -0.750266 0.291483 -20.260368 -10.435018 1.307899 0.000000 0.000000 0.000000 0.630198 15.797702 -1.156888 -63.567323 -23.984100 -81.045217 20.570648 15.342400 12.908341 11.181290 20.342990 20.153181 0.000000 0.000000 0.000000 0.000000 0.000000 0.000000 -0.537357 -4.583508 -3.577910 8.107149 17.827217 -5.351625 8.949392 8.498072 -1.138505 -34.476465 -9.260188 -3.015066 0.000000 0.000000 0.000000 0.000000 0.000000 0.000000 -29.372427 -0.411504 -11.799702 3.141713 27.017996 2.265636 14.743765 -11.891239 -7.059514 0.000000 0.000000 0.000000 7.070031 -16.022785 -15.865053 -12.478355 11.657154 6.013567 8.741872 8.100147 -16.199162 0.000000 0.000000 0.000000
44.295099 75.774870 412.645484 10.484761 -2.911262 14.618554 -1.148699 0.604391 -14.141857 0.227392 -0.048756 0.270060 -21.033483 -8.011662 2.011359 0.000000 0.000000 0.000000 7.330731 22.290968 -2.605557 -73.300441 -25.595531 -89.033038 19.687306 13.471841 21.896456 16.830253 18.132159 8.374112 0.000000 0.000000 0.000000 0.000000 0.000000 0.000000 -0.557635 -3.728608 -3.678265 7.329173 15.740599 -4.821954 13.353463 14.342084 -4.706693 -37.627737 -14.545419 -3.871343 0.000000 0.000000 0.000000 0.000000 0.000000 0.000000 -34.357666 2.327724 -9.656401 9.475358 24.112392 -0.102974 11.904533 -4.356358 -10.361499 0.000000 0.000000 0.000000 17.998535 -17.972727 -12.691882 -27.408557 9.345185 6.538965 9.865410 9.250803 -14.730433 0.000000 0.000000 0.000000
45.085169 73.048215 414.131506 10.625736 -2.892448 16.369438 -0.916067 -0.161137 -15.845472 -0.486174 0.350378 0.241570 -20.722226 -4.915544 2.824024 0.000000 0.000000 0.000000 21.381323 32.658482 -7.287708 -90.886624 -25.209911 -101.145748 19.272936 11.902712 30.214358 23.281896 11.799503 -8.507089 0.000000 0.000000 0.000000 0.000000 0.000000 0.000000 0.879069 -4.621183 -4.126761 5.891816 16.226343 -4.338179 17.343680 16.791480 -6.375207 -39.035414 -13.968740 -4.334644 0.000000 0.000000 0.000000 0.000000 0.000000 0.000000 -37.006882 7.340215 -8.444257 15.616473 18.962770 -2.312874 9.465336 -2.306916 -11.019151 0.000000 0.000000 0.000000 31.044387 -20.407928 -10.455952 -44.657783 8.850708 6.605612 9.328272 13.079416 -14.968246 0.000000 0.000000 0.000000
45.606490 70.062713 415.787776 9.950959 -3.333458 18.919486 -0.475826 -0.498247 -18.392572 -1.218732 0.349862 0.224119 -20.350234 -2.462254 3.753224 0.000000 0.000000 0.000000 42.832276 43.230192 -18.231461 -109.716773 -20.943978 -114.412514 18.842732 11.011741 38.535295 26.329386 2.565494 -24.831027 0.000000 0.000000 0.000000 0.000000 0.000000 0.000000 3.786332 -5.560608 -4.809589 3.568865 17.259921 -3.556847 18.171201 17.195065 -6.583378 -38.268993 -17.154857 -3.453309 0.000000 0.000000 0.000000 0.000000 0.000000 0.000000 -36.510321 12.968020 -8.226341 18.971848 14.468452 -3.288071 11.179351 -16.291426 -5.652221 0.000000 0.000000 0.000000 48.570646 -22.526905 -7.104785 -64.090673 7.495864 5.587933 10.227350 15.242087 -15.205700 0.000000 0.000000 0.000000
45.430083 67.251968 416.815858 8.473448 -3.481109 21.860986 0.094040 -0.819067 -21.414126 -1.900046 0.357391 0.192764 -20.465330 -1.396664 4.781602 0.000000 0.000000 0.000000 64.710332 48.338891 -31.225044 -123.223206 -15.013452 -122.625567 18.463245 10.127736 45.292966 26.210156 -5.987662 -38.498705 0.000000 0.000000 0.000000 0.000000 0.000000 0.000000 6.735099 -8.505024 -5.293821 1.716718 20.120516 -3.003984 19.935221 17.464214 -6.797752 -38.118643 -22.083559 -2.325918 0.000000 0.000000 0.000000 0.000000 0.000000 0.000000 -35.162823 19.219312 -8.218935 23.557357 7.293731 -4.113600 10.464032 -21.594123 -1.503964 0.000000 0.000000 0.000000 64.183582 -28.148013 -2.129529 -80.518846 10.155312 7.164591 9.324918 18.370660 -16.450857 0.000000 0.000000 0.000000
45.085680 65.139788 417.828574 7.195237 -4.439270 26.953249 0.306901 -0.605816 -26.571219 -2.444885 -0.023271 0.171796 -20.247444 0.908328 6.181867 0.000000 0.000000 0.000000 77.936891 49.829783 -39.941826 -128.989901 -11.944143 -125.652928 17.989696 10.372497 50.668933 24.737997 -14.109009 -52.463097 0.000000 0.000000 0.000000 0.000000 0.000000 0.000000 9.259324 -11.243975 -5.722940 0.380489 23.660098 -2.601799 22.499531 18.796031 -8.039850 -38.802972 -30.252979 -0.975350 0.000000 0.000000 0.000000 0.000000 0.000000 0.000000 -32.037734 27.884259 -9.719999 24.912994 0.471726 -4.615680 9.811127 -19.313765 2.134187 0.000000 0.000000 0.000000 71.480351 -34.832038 -0.625052 -91.312029 12.472071 9.184592 18.821994 15.408235 -18.899367 0.000000 0.000000 0.000000
44.721958 63.672275 418.683083 5.850394 -5.291215 34.121089 0.135031 -0.010572 -33.823758 -2.592649 -0.861792 0.125136 -18.289117 4.179114 7.159531 0.000000 0.000000 0.000000 85.158949 50.068798 -44.420279 -131.042302 -10.783752 -126.355766 17.853136 9.713702 52.613813 20.608768 -19.988134 -62.105417 0.000000 0.000000 0.000000 0.000000 0.000000 0.000000 11.116045 -14.417528 -6.003712 -0.083452 28.160675 -2.556009 22.855669 18.556247 -7.886948 -39.160707 -27.552362 -1.520060 0.000000 0.000000 0.000000 0.000000 0.000000 0.000000 -27.364549 37.553312 -13.560998 26.740387 -6.056378 -5.000965 6.367124 -9.549570 -0.780513 0.000000 0.000000 0.000000 71.577568 -42.081882 -3.264111 -91.578224 12.885738 9.528674 17.584859 15.319881 -18.182389 0.000000 0.000000 0.000000
44.365385 62.577170 419.985725 4.727603 -6.393961 36.819408 -0.011782 1.051490 -36.581588 -2.446730 -0.981612 0.063744 -15.236977 6.927669 7.229752 0.000000 0.000000 0.000000 84.970720 50.007803 -43.266917 -129.844264 -11.548643 -125.431140 18.030730 8.795823 51.276251 13.927234 -24.044970 -66.623380 0.000000 0.000000 0.000000 0.000000 0.000000 0.000000 11.933530 -16.075498 -5.928721 0.729968 30.697318 -3.034758 22.462725 18.069598 -7.533299 -40.132805 -26.106856 -2.307893 0.000000 0.000000 0.000000 0.000000 0.000000 0.000000 -23.204075 43.144588 -14.843901 25.190793 -7.546485 -5.515532 9.689096 -14.890952 3.217091 0.000000 0.000000 0.000000 76.514647 -41.734695 -3.316783 -92.638791 10.351613 6.211973 12.293755 18.753729 -17.427658 0.000000 0.000000 0.000000
43.139976 62.754804 420.058640 2.915040 -6.355461 41.946035 -0.596283 1.541955 -41.818924 -1.162638 -1.638729 -0.029492 -13.113479 10.646796 7.755511 0.000000 0.000000 0.000000 76.181791 50.620940 -38.057229 -123.699026 -15.574601 -123.730021 18.152814 10.422267 46.507518 7.462240 -27.899569 -62.893794 0.000000 0.000000 0.000000 0.000000 0.000000 0.000000 12.608548 -16.459206 -5.958760 1.313997 32.433006 -3.406566 22.165952 18.067058 -7.688668 -39.622555 -26.822445 -2.145645 0.000000 0.000000 0.000000 0.000000 0.000000 0.000000 -17.070098 50.128106 -18.935930 24.040783 -12.225682 -7.257543 14.595087 -18.295521 8.885374 0.000000 0.000000 0.000000 78.450542 -52.984242 -0.223995 -92.324470 13.655906 12.057505 12.399766 16.531173 -17.914048 0.000000 0.000000 0.000000
43.972110 62.845858 419.774905 3.625493 -6.318485 36.402693 -1.195778 2.146399 -36.188109 -0.851481 -2.468951 -0.046306 -12.401597 14.594591 8.150434 0.000000 0.000000 0.000000 77.248584 49.180302 -37.231868 -124.693761 -13.707282 -122.440150 18.485505 12.590578 43.578687 6.465477 -29.286228 -57.964133 0.000000 0.000000 0.000000 0.000000 0.000000 0.000000 11.864063 -16.712049 -5.979915 1.289806 33.545477 -3.316187 22.164190 18.020007 -7.843959 -39.046376 -27.161972 -1.964088 0.000000 0.000000 0.000000 0.000000 0.000000 0.000000 -36.353890 55.026523 1.622465 27.260854 -16.793827 -9.466869 18.118443 -14.029147 -1.156240 0.000000 0.000000 0.000000 59.368924 -44.466024 -12.578866 -80.752889 15.409300 10.659188 6.751271 20.674233 -16.316591 0.000000 0.000000 0.000000
